#!OML:ASF F:\VICON\USERDATA\INSTALL\Justin_Nancy\Justin_Nancy.ASF
:FULLY-SPECIFIED
:DEGREES
215
root 4.29441 17.4424 12.0221 -0.257952 45.6862 -1.22992
lowerback 7.40716 -1.56565 -1.82181
upperback 0.102913 -2.0842 3.38414
thorax -3.85705 -0.964154 4.76735
lowerneck -15.9423 -3.49961 -9.1038
upperneck 23.8183 -3.22335 3.49781
head 10.4961 -1.8432 2.34244
rclavicle -5.36719e-015 -1.51076e-014
rhumerus -41.9912 -24.6333 -70.1986
rradius 20.7632
rwrist 15.9005
rhand -17.4921 12.5085
rfingers 7.12502
rthumb 8.76051 -17.2896
lclavicle -5.36719e-015 -1.51076e-014
lhumerus -28.343 7.56675 84.9688
lradius 35.9016
lwrist -3.3908
lhand -15.5324 24.8593
lfingers 7.12502
lthumb 10.6513 54.5693
rfemur -20.1733 4.18635 25.0313
rtibia 27.322
rfoot -4.4521 -5.56905
rtoes 14.4289
lfemur -5.78928 -3.81788 -19.1949
ltibia 60.8517
lfoot 22.1391 -14.5188
ltoes 0.987762
216
root 4.45475 17.4756 12.213 -0.455869 45.6608 -1.57228
lowerback 6.99957 -1.4554 -1.49222
upperback 0.250661 -1.90695 3.48157
thorax -3.49888 -0.889397 4.64448
lowerneck -15.9471 -3.61618 -9.26406
upperneck 23.6788 -3.36901 3.59739
head 10.4621 -1.91082 2.38277
rclavicle 5.81445e-014 -2.70347e-014
rhumerus -41.0288 -23.7806 -70.8443
rradius 20.6888
rwrist 15.4328
rhand -17.5855 12.5143
rfingers 7.12502
rthumb 8.67032 -17.2876
lclavicle 5.81445e-014 -2.70347e-014
lhumerus -28.1407 6.93806 85.456
lradius 35.3352
lwrist -3.00701
lhand -12.7192 19.1297
lfingers 7.12502
lthumb 13.3639 48.6811
rfemur -18.9122 3.8543 25.4513
rtibia 26.7064
rfoot -5.0581 -5.08242
rtoes 14.2124
lfemur -7.55789 -3.79117 -18.9224
ltibia 62.8045
lfoot 18.6454 -14.0493
ltoes -1.57875
217
root 4.60105 17.4983 12.3996 -0.550406 45.3488 -1.81889
lowerback 6.59704 -1.27958 -1.36337
upperback 0.446689 -1.66168 3.60879
thorax -3.09195 -0.777647 4.66272
lowerneck -16.124 -3.75696 -9.66603
upperneck 23.6896 -3.50495 3.84937
head 10.5246 -1.97843 2.51966
rclavicle 7.31031e-014 -2.78299e-014
rhumerus -40.1307 -22.6498 -71.6409
rradius 21.0126
rwrist 14.8228
rhand -17.7183 12.6648
rfingers 7.12502
rthumb 8.54222 -17.1424
lclavicle 7.31031e-014 -2.78299e-014
lhumerus -27.8091 6.92694 85.7849
lradius 34.583
lwrist -3.37593
lhand -18.2927 31.9163
lfingers 7.12502
lthumb 7.98781 61.7453
rfemur -17.8092 3.97166 25.8388
rtibia 26.1685
rfoot -5.61923 -4.76791
rtoes 12.2527
lfemur -9.46339 -3.48691 -18.7378
ltibia 64.5338
lfoot 15.2751 -13.3663
ltoes -4.84059
218
root 4.74226 17.5172 12.5781 -0.516078 44.8314 -1.95655
lowerback 6.41008 -1.00569 -1.12767
upperback 0.485842 -1.2821 3.57595
thorax -2.98671 -0.593803 4.45468
lowerneck -16.2082 -3.83926 -9.87349
upperneck 23.822 -3.61232 4.06924
head 10.6065 -2.02094 2.6194
rclavicle -4.3186e-014 2.38542e-015
rhumerus -39.8817 -21.9267 -72.2608
rradius 21.7923
rwrist 14.2451
rhand -17.3232 12.7558
rfingers 7.12502
rthumb 8.9235 -17.0355
lclavicle -4.3186e-014 2.38542e-015
lhumerus -27.7814 6.29775 86.0866
lradius 34.1128
lwrist -3.08502
lhand -16.1449 28.5006
lfingers 7.12502
lthumb 10.0604 58.2401
rfemur -16.7921 3.95475 26.2011
rtibia 25.5915
rfoot -6.00017 -4.36342
rtoes 8.90981
lfemur -11.4712 -2.77568 -18.5477
ltibia 66.0419
lfoot 12.3581 -12.5236
ltoes -6.84608
219
root 4.87902 17.5373 12.7495 -0.769015 44.1291 -2.63955
lowerback 6.36147 -0.706603 -0.483386
upperback 0.347611 -0.832348 3.59435
thorax -3.14979 -0.373744 4.07022
lowerneck -15.9702 -3.80545 -9.61766
upperneck 23.8571 -3.62556 3.94512
head 10.5657 -2.0201 2.53284
rclavicle -1.90336e-014 -4.13472e-014
rhumerus -40.0665 -21.5217 -72.6474
rradius 22.8739
rwrist 14.3005
rhand -17.1303 12.5936
rfingers 7.12502
rthumb 9.10965 -17.1896
lclavicle -1.90336e-014 -4.13472e-014
lhumerus -28.1184 5.75893 86.2446
lradius 33.8094
lwrist -2.6172
lhand -16.1364 27.4905
lfingers 7.12502
lthumb 10.0686 57.2296
rfemur -15.9292 4.09118 26.9988
rtibia 25.0478
rfoot -6.16569 -3.99542
rtoes 4.3286
lfemur -13.4968 -1.97537 -17.8678
ltibia 67.3468
lfoot 9.89279 -11.1607
ltoes -6.74853
